<svg xmlns="http://www.w3.org/2000/svg" width="30" height="40" viewBox="0 0 30 40">
  <path id="Icon_fa-regular-building" data-name="Icon fa-regular-building" d="M5,3.75A1.254,1.254,0,0,0,3.75,5V35A1.254,1.254,0,0,0,5,36.25h6.25v-5a3.75,3.75,0,0,1,7.5,0v5H25A1.254,1.254,0,0,0,26.25,35V5A1.254,1.254,0,0,0,25,3.75ZM0,5A5,5,0,0,1,5,0H25a5,5,0,0,1,5,5V35a5,5,0,0,1-5,5H5a5,5,0,0,1-5-5ZM6.875,8.125a1.254,1.254,0,0,1,1.25-1.25h3.75a1.254,1.254,0,0,1,1.25,1.25v3.75a1.254,1.254,0,0,1-1.25,1.25H8.125a1.254,1.254,0,0,1-1.25-1.25Zm11.25-1.25h3.75a1.254,1.254,0,0,1,1.25,1.25v3.75a1.254,1.254,0,0,1-1.25,1.25h-3.75a1.254,1.254,0,0,1-1.25-1.25V8.125A1.254,1.254,0,0,1,18.125,6.875ZM6.875,18.125a1.254,1.254,0,0,1,1.25-1.25h3.75a1.254,1.254,0,0,1,1.25,1.25v3.75a1.254,1.254,0,0,1-1.25,1.25H8.125a1.254,1.254,0,0,1-1.25-1.25Zm11.25-1.25h3.75a1.254,1.254,0,0,1,1.25,1.25v3.75a1.254,1.254,0,0,1-1.25,1.25h-3.75a1.254,1.254,0,0,1-1.25-1.25v-3.75A1.254,1.254,0,0,1,18.125,16.875Z" fill="#71717a"/>
</svg>
